<svg width="45" height="45" viewBox="0 0 45 45" fill="none" xmlns="http://www.w3.org/2000/svg">
<rect x="2.43994" y="1.96216" width="41" height="41" stroke="black" stroke-width="3"/>
<path d="M21.3699 28.2591V26.4671C21.3699 25.6351 21.4979 24.9418 21.7539 24.3871C22.0099 23.8324 22.3406 23.3524 22.7459 22.9471C23.1726 22.5418 23.6099 22.1684 24.0579 21.8271C24.5273 21.4644 24.9646 21.1018 25.3699 20.7391C25.7966 20.3551 26.1379 19.9178 26.3939 19.4271C26.6499 18.9151 26.7779 18.3071 26.7779 17.6031C26.7779 17.3258 26.7353 16.9951 26.65 16.6111C26.5859 16.2058 26.4153 15.8218 26.1379 15.4591C25.8819 15.0751 25.4873 14.7551 24.9539 14.4991C24.4206 14.2431 23.7166 14.1151 22.8419 14.1151C21.8606 14.1151 21.0819 14.2751 20.5059 14.5951C19.9299 14.8938 19.4926 15.2778 19.1939 15.7471C18.9166 16.2164 18.7246 16.6751 18.6179 17.1231C18.5326 17.5711 18.4899 17.9444 18.4899 18.2431C18.4899 18.3924 18.4899 18.5418 18.4899 18.6911C18.4899 18.8191 18.5006 18.9684 18.5219 19.1391H15.6739C15.6526 19.0538 15.6313 18.9258 15.6099 18.7551C15.5886 18.5631 15.5779 18.3284 15.5779 18.0511C15.5779 17.5604 15.6526 17.0271 15.8019 16.4511C15.9513 15.8751 16.1966 15.2991 16.5379 14.7231C16.8793 14.1471 17.3379 13.6244 17.9139 13.1551C18.4899 12.6858 19.1939 12.3124 20.0259 12.0351C20.8793 11.7364 21.8819 11.5871 23.0339 11.5871C24.0793 11.5871 24.9859 11.7151 25.7539 11.9711C26.5219 12.2058 27.1619 12.5364 27.6739 12.9631C28.2073 13.3684 28.6233 13.8271 28.9219 14.3391C29.2419 14.8298 29.4659 15.3311 29.5939 15.8431C29.7433 16.3551 29.8179 16.8351 29.8179 17.2831C29.8179 18.3071 29.6793 19.1711 29.4019 19.8751C29.1246 20.5791 28.7619 21.1764 28.3139 21.6671C27.8873 22.1364 27.4286 22.5524 26.938 22.9151C26.4686 23.2778 26.0099 23.6404 25.5619 24.0031C25.1139 24.3444 24.7513 24.7391 24.4739 25.1871C24.1966 25.6138 24.0579 26.1471 24.0579 26.7871V28.2591H21.3699ZM21.1459 33.9231V30.5631H24.2819V33.9231H21.1459Z" fill="black"/>
</svg>
