<svg width="45" height="45" viewBox="0 0 45 45" fill="none" xmlns="http://www.w3.org/2000/svg">
<path d="M22.9399 11.2563V6.75635" stroke="black" stroke-width="2"/>
<path d="M12.7741 17.1255L8.87695 14.8755" stroke="black" stroke-width="2"/>
<path d="M17.0708 12.829L14.8208 8.93188" stroke="black" stroke-width="2"/>
<path d="M22.9399 39.2329V34.7329" stroke="black" stroke-width="2"/>
<path d="M6.70166 22.9946L11.2017 22.9946" stroke="black" stroke-width="2"/>
<path d="M8.8773 31.1138L12.7744 28.8638" stroke="black" stroke-width="2"/>
<path d="M14.8208 37.0573L17.0708 33.1602" stroke="black" stroke-width="2"/>
<rect x="2.43994" y="2.49463" width="41" height="40.9999" stroke="black" stroke-width="3"/>
<path d="M26.7863 16.2155C25.6514 15.5702 24.3387 15.2017 22.9399 15.2017C18.636 15.2017 15.147 18.6907 15.147 22.9946C15.147 27.2985 18.636 30.7875 22.9399 30.7875C24.3387 30.7875 25.6514 30.419 26.7863 29.7737" stroke="black" stroke-width="2"/>
<circle cx="30.7329" cy="22.9946" r="7.79293" stroke="black" stroke-width="2"/>
</svg>
