<svg width="45" height="45" viewBox="0 0 45 45" fill="none" xmlns="http://www.w3.org/2000/svg">
<rect x="2.43994" y="2.02661" width="41" height="41" stroke="black" stroke-width="3"/>
<path d="M34.0009 22.4445C34.0009 20.9084 33.6809 19.3891 33.0613 17.9834C32.4418 16.5777 31.5362 15.3165 30.4023 14.2801C29.2685 13.2437 27.9311 12.4549 26.4756 11.9639C25.02 11.4728 23.4781 11.2904 21.9482 11.4281" stroke="black" stroke-width="2"/>
<path d="M34.0008 24.3276L31.3988 20.6898L36.6028 20.6898L34.0008 24.3276Z" fill="black"/>
<path d="M17.4097 32.0237C18.7401 32.7918 20.2158 33.2743 21.7429 33.4406C23.2701 33.6069 24.8151 33.4532 26.2796 32.9895C27.7441 32.5257 29.0959 31.762 30.2489 30.7469C31.4019 29.7319 32.3309 28.4878 32.9766 27.094" stroke="black" stroke-width="2"/>
<path d="M15.7791 31.082L20.2306 30.6475L17.6286 35.1544L15.7791 31.082Z" fill="black"/>
<path d="M17.4097 12.8655C16.0794 13.6336 14.9236 14.6703 14.016 15.9097C13.1085 17.1491 12.469 18.564 12.1384 20.0641C11.8078 21.5643 11.7933 23.1169 12.0958 24.623C12.3984 26.129 13.0113 27.5556 13.8956 28.8117" stroke="black" stroke-width="2"/>
<path d="M19.0404 11.9241L17.1909 15.9964L14.5889 11.4895L19.0404 11.9241Z" fill="black"/>
</svg>
